<?xml version="1.0" standalone="no"?>
<!DOCTYPE svg PUBLIC "-//W3C//DTD SVG 20010904//EN"
 "http://www.w3.org/TR/2001/REC-SVG-20010904/DTD/svg10.dtd">
<svg version="1.0" xmlns="http://www.w3.org/2000/svg"
 width="1071.000000pt" height="1071.000000pt" viewBox="0 0 1071.000000 1071.000000"
 preserveAspectRatio="xMidYMid meet">
<metadata>
Created by potrace 1.14, written by Peter Selinger 2001-2017
</metadata>
<g transform="translate(0.000000,1071.000000) scale(0.100000,-0.100000)"
fill="#000000" stroke="none">
<path d="M3448 10695 c-2 -2 -29 -6 -59 -9 -408 -40 -812 -240 -1098 -542 -88
-93 -181 -211 -227 -290 -16 -27 -34 -58 -41 -69 -24 -41 -93 -187 -107 -228
-8 -23 -22 -60 -31 -82 -10 -22 -17 -42 -16 -45 0 -3 -5 -23 -11 -45 -6 -22
-13 -47 -14 -55 -2 -8 -6 -31 -10 -50 -12 -59 -13 -64 -20 -115 -4 -27 -9 -61
-11 -75 -8 -40 -11 -314 -5 -325 4 -5 7 -19 8 -30 3 -47 14 -124 24 -170 6
-27 13 -63 16 -78 3 -15 14 -52 24 -82 10 -30 17 -55 14 -55 -2 0 4 -17 15
-37 10 -21 20 -42 21 -48 5 -21 23 -63 58 -135 167 -346 459 -640 807 -811
136 -67 150 -73 255 -105 105 -31 107 -32 205 -50 44 -8 87 -16 95 -19 8 -2
41 -5 72 -6 66 -3 69 -11 6 -15 -136 -10 -250 -34 -408 -85 -178 -58 -384
-169 -535 -290 -80 -63 -235 -214 -275 -268 -14 -18 -35 -45 -46 -59 -160
-200 -305 -548 -340 -812 -2 -19 -7 -51 -10 -70 -8 -54 -13 -313 -7 -324 4 -5
8 -28 9 -50 4 -57 11 -102 24 -164 7 -30 13 -59 14 -65 18 -92 82 -267 140
-382 108 -218 285 -440 461 -580 28 -22 52 -43 55 -46 17 -21 208 -137 303
-183 198 -96 450 -165 620 -169 43 -1 32 -17 -13 -18 -22 -1 -43 -2 -47 -3 -5
-1 -35 -6 -68 -10 -33 -4 -102 -19 -154 -32 -359 -93 -678 -290 -911 -564 -30
-36 -57 -67 -60 -70 -17 -15 -84 -116 -128 -190 -78 -133 -141 -281 -183 -430
-15 -52 -13 -45 -22 -90 -4 -19 -9 -46 -12 -60 -3 -14 -8 -47 -11 -75 -3 -27
-8 -61 -11 -75 -8 -33 -8 -269 0 -348 5 -52 21 -145 41 -237 10 -47 27 -111
36 -130 5 -11 14 -38 21 -60 26 -85 108 -253 177 -360 77 -120 140 -196 261
-315 248 -242 545 -400 883 -469 134 -28 213 -35 363 -34 175 1 268 12 420 48
33 8 147 43 195 60 86 30 275 128 365 188 50 33 92 63 95 66 3 4 15 14 27 22
52 36 181 161 251 244 222 263 345 540 407 915 13 78 15 243 15 1894 0 945 2
1717 4 1715 2 -2 7 -22 10 -44 3 -22 8 -51 11 -65 3 -14 7 -38 10 -55 7 -50
45 -186 71 -255 144 -373 374 -664 695 -878 82 -55 288 -162 311 -162 8 0 18
-4 23 -9 28 -26 287 -93 408 -106 32 -4 68 -8 80 -11 12 -3 74 -5 137 -5 132
-1 226 7 330 26 14 3 39 7 55 10 55 9 228 61 310 94 151 61 352 181 470 282
77 66 227 222 265 275 94 133 131 192 191 304 78 145 167 458 174 610 0 8 3
20 6 25 8 13 3 298 -5 345 -4 19 -11 67 -17 105 -24 160 -76 321 -159 490 -50
102 -157 278 -179 295 -4 3 -22 25 -41 50 -90 116 -263 271 -414 369 -230 149
-560 263 -793 273 -24 2 -43 6 -43 10 0 4 19 8 43 9 23 0 49 2 57 4 8 1 35 6
60 10 100 15 272 60 345 91 19 8 36 14 37 13 8 -4 222 110 296 158 371 239
639 606 755 1033 19 71 46 214 50 265 2 22 5 45 9 50 5 9 4 300 -1 300 -2 0
-5 20 -7 45 -2 25 -11 81 -20 125 -9 44 -18 88 -20 98 -2 10 -6 27 -9 37 -3
10 -8 27 -10 37 -10 50 -73 209 -117 298 -262 523 -749 880 -1323 970 -16 3
-46 8 -65 11 -35 7 -3896 15 -3902 9z m2709 -3565 c417 0 770 2 786 4 15 2 30
-1 33 -6 3 -4 2 -7 -3 -6 -46 12 -363 -60 -470 -108 -17 -8 -33 -14 -36 -14
-9 0 -170 -79 -217 -106 -270 -157 -496 -383 -652 -654 -118 -206 -200 -450
-224 -665 -8 -76 -20 -91 -17 -22 1 29 3 395 3 814 0 764 1 784 32 766 4 -2
348 -3 765 -3z m-787 -1950 c0 -5 -2 -10 -4 -10 -3 0 -8 5 -11 10 -3 6 -1 10
4 10 6 0 11 -4 11 -10z"/>
</g>
</svg>
